# xmcd CD database file
#
# Track frame offsets:
#	150
#	14978
#	26906
#	40682
#	54929
#	65508
#	85025
#	95721
#	107683
#	122032
#	135882
#	146098
#	158544
#	169925
#	184581
#	199441
#	218755
#	236889
#	248242
#	260043
#	274023
#
# Disc length: 3847 seconds
#
# Revision: 2
# Processed by: cddbd v1.5.2PL0 Copyright (c) Steve Scherf et al.
# Submitted via: CDex 1.51
#
DISCID=340f0515
DTITLE=Various Artist - 50 ans de grandes voix françaises  [CD 3-6]  Enregistrements d'origine 78 tours remasterisés
DYEAR=2001
DGENRE=Chants
TTITLE0=Yvonne Printemps - C'est la saison d'amour
TTITLE1=Yvonne Printemps - J'ai deux amants
TTITLE2=Fanély Révoil - C'est l'amour
TTITLE3=Fanély Révoil - La fille de madame Angot
TTITLE4=Edmée Favart - Chanson de route de Ciboulette
TTITLE5=Ninon Vallin - J'aime bien mes dindons
TTITLE6=Ninon Vallin - Heure exquise
TTITLE7=Sim Viva - Le vin de Suresne
TTITLE8=Sim Viva - Légende des cloches
TTITLE9=Lemichel du Roy - La bergère Colinette
TTITLE10=Lemichel du Roy - Dans une mystérieuse histoire
TTITLE11=Mireille Bethon - Ah, que j'aime les militaires
TTITLE12=Mireille Bethon - Je suis la veuve d'un colonel
TTITLE13=Jane Marnac - La périchole
TTITLE14=Jane Marnac - La belle Hélène
TTITLE15=Emma Luart - Véronique
TTITLE16=Emma Luart - Elle a fui la touterelle
TTITLE17=Loulou Hegoburu - C'est Rosalie
TTITLE18=Loulou Hegoburu - La cantinière
TTITLE19=Hélène Regelly - Vive le cidre de Normandie
TTITLE20=Hélène Regelly - Un jour un brave capitaine
EXTD=YEAR: 2001
EXTT0=
EXTT1=
EXTT2=
EXTT3=
EXTT4=
EXTT5=
EXTT6=
EXTT7=
EXTT8=
EXTT9=
EXTT10=
EXTT11=
EXTT12=
EXTT13=
EXTT14=
EXTT15=
EXTT16=
EXTT17=
EXTT18=
EXTT19=
EXTT20=
PLAYORDER=
